# xmcd CD database file generated by Grip 3.0.3
# 
# Track frame offsets:
#       150
#       31396
#       51600
#       68504
#       88742
#       100947
#       126053
#       143860
#       171181
#       183666
#       204344
#       224176
#       244604
#       269194
#       281906
# 
# Disc length: 4069 seconds
# 
# Revision: 2
# Processed by: cddbd v1.4PL0 Copyright (c) Steve Scherf et al.
# Submitted via: Grip 3.0.3
# 
DISCID=f50fe30f
DTITLE=Christian Rannenberg - blues
DYEAR=1997
DGENRE=Blues
TTITLE0=California Shuffle
TTITLE1=Strange Things Happening
TTITLE2=Cow Cow Blues
TTITLE3=How Long Blues
TTITLE4=I Dare You Baby
TTITLE5=After Hours
TTITLE6=Alabama Boogie
TTITLE7=I Woud Not Do The Same Thing To You
TTITLE8=Texas Tour
TTITLE9=Chris' Blues
TTITLE10=Ramblin' On My Mind
TTITLE11=Blues Café Farewell
TTITLE12=Bad Habits Blues
TTITLE13=Leo's Groove
TTITLE14=Whip Appeal
EXTD=Wonderland Records/Acoustic Music Records\n319.9020.242
EXTT0=(Rannenberg/Jahn)
EXTT1=(Percy Mayfield)
EXTT2=(Charles Davenport)
EXTT3=(Leroy Carr)
EXTT4=(Percy Mayfield)
EXTT5=(Avery Parrish]\n
EXTT6=(Chr. Rannenberg)
EXTT7=(Percy Mayfield)
EXTT8=(John Henry Davis)
EXTT9=(Chr. Rannenberg)
EXTT10=(Robert  Johnson)
EXTT11=(Rannenberg/Jahn)
EXTT12=(Chr. Rannenberg)
EXTT13=(Chr. Rannenberg)
EXTT14=(Babyface)
PLAYORDER=
